<svg width="40" height="40" viewBox="0 0 40 40" fill="none" xmlns="http://www.w3.org/2000/svg">
<g clip-path="url(#clip0_6475_4634)">
<path d="M15.043 10.5L4.04297 21L5.87773 22.7514L15.043 13.9986L24.2082 22.7473L26.043 21L15.043 10.5ZM8.62773 22.7514V31.5H21.4625V22.7514L15.043 16.6236L8.62773 22.7514Z" fill="url(#paint0_linear_6475_4634)"/>
</g>
<path d="M21 5.5L31.3469 24.167C31.8975 25.1604 31.9063 26.3653 31.3703 27.3666L27.5514 34.5H30.2999C31.1551 34.5 31.9401 34.0267 32.3393 33.2704L35.6199 27.0563C36.1399 26.0712 36.1256 24.8898 35.5818 23.9176L26.0774 6.92435C25.648 6.15659 24.8515 5.66609 23.9726 5.62819L21 5.5Z" fill="url(#paint1_linear_6475_4634)"/>
<rect x="0.5" y="0.5" width="39" height="39" rx="1.5" stroke="#0087EA"/>
<defs>
<linearGradient id="paint0_linear_6475_4634" x1="15.043" y1="10.5" x2="15.043" y2="31.5" gradientUnits="userSpaceOnUse">
<stop stop-color="#1F60A8"/>
<stop offset="1" stop-color="#2C94D2"/>
</linearGradient>
<linearGradient id="paint1_linear_6475_4634" x1="28.5" y1="5.5" x2="28.5" y2="34.5" gradientUnits="userSpaceOnUse">
<stop stop-color="#1F60A8"/>
<stop offset="1" stop-color="#2C94D2"/>
</linearGradient>
<clipPath id="clip0_6475_4634">
<rect width="22" height="21" fill="white" transform="translate(4 10.5)"/>
</clipPath>
</defs>
</svg>