<svg width="46" height="46" viewBox="0 0 46 46" fill="none" xmlns="http://www.w3.org/2000/svg">
<path d="M27.1399 33.5754C23.7316 35.715 20.7768 36.4111 17.5668 36.5467C14.4577 36.6795 11.0483 35.6391 8.38923 34.2159C11.8658 39.8917 21.6963 39.1664 26.4875 35.7848C26.7248 35.1062 26.9473 34.3655 27.1399 33.5754Z" fill="#F29220"/>
<path d="M27.5286 29.9305C24.1951 31.5678 18.8735 32.3243 14.9529 31.4258C11.8593 30.7197 8.84248 29.0192 6.62871 26.8991C6.46469 26.7393 6.30382 26.5798 6.14742 26.4168C5.50738 25.747 4.95578 25.0424 4.50179 24.3198C5.34285 29.1751 10.2761 33.6937 17.4635 34.2373C20.7028 34.4829 24.6564 33.3657 27.4194 31.7871C27.484 31.1844 27.5218 30.5644 27.5286 29.9305Z" fill="#E53830"/>
<path d="M30.6358 13.5735C34.194 15.4548 36.2731 17.665 37.9964 20.3765C39.6652 23.0019 40.4695 26.4765 40.5669 29.4892C43.7432 23.6403 38.2009 15.4916 32.8766 13.0325C32.1684 13.1671 31.4165 13.3442 30.6358 13.5735Z" fill="#98C23C"/>
<path d="M27.2851 15.0587C30.3685 17.1279 33.6847 21.3563 34.8695 25.201C35.8019 28.2324 35.8392 31.6951 35.111 34.6712C35.054 34.8937 34.9947 35.1141 34.932 35.3303C34.6722 36.219 34.3374 37.0497 33.9398 37.8035C37.7244 34.6494 39.1704 28.1177 36.0483 21.6242C34.6405 18.6948 31.6953 15.8303 28.947 14.2256C28.3935 14.4701 27.837 14.7488 27.2851 15.0587Z" fill="#59B7B3"/>
<path d="M11.2201 20.8905C11.0695 16.8694 11.9444 13.9629 13.4313 11.1157C14.8725 8.35828 17.4783 5.92515 20.0395 4.3335C13.3843 4.50798 9.09844 13.3804 9.62984 19.222C10.1001 19.7667 10.6299 20.3305 11.2201 20.8905Z" fill="#AD599C"/>
<path d="M14.1821 23.0508C14.4322 19.3456 16.4374 14.3592 19.1734 11.4128C21.3323 9.08858 24.3137 7.32507 27.2567 6.46863C27.4755 6.40513 27.697 6.34715 27.9159 6.2931C28.8149 6.07374 29.7027 5.94753 30.5556 5.91421C25.9299 4.21708 19.5484 6.23065 15.4864 12.1798C13.6536 14.864 12.6444 18.8455 12.6278 22.0275C13.118 22.3857 13.6381 22.7273 14.1821 23.0508Z" fill="#374894"/>
<path d="M31.7586 8.76517C24.0069 8.74776 16.6074 16.2076 15.9044 25.759C11.8153 24.4215 8.31418 21.3738 5.09462 16.3351C5.15408 27.288 18.4945 32.8161 29.3209 27.5242C30.2243 31.7572 29.3302 36.3338 26.5469 41.6668C36.0227 36.1567 34.1642 21.8213 24.1651 15.0754C27.4226 12.1647 31.8757 10.6781 37.9433 10.4932C35.938 9.3113 33.8358 8.76983 31.7586 8.76517ZM22.6153 16.6708C25.5588 19.5363 27.5987 22.3887 28.6982 25.3843C24.7129 26.5156 21.198 26.8537 18.0316 26.2886C19.0799 22.3041 20.5558 19.1118 22.6153 16.6708Z" fill="url(#paint0_linear_1138_13645)"/>
<defs>
<linearGradient id="paint0_linear_1138_13645" x1="42.9353" y1="25.2492" x2="5.0371" y2="25.2492" gradientUnits="userSpaceOnUse">
<stop stop-color="#1F60A8"/>
<stop offset="1" stop-color="#2C94D2"/>
</linearGradient>
</defs>
</svg>
